<?xml version="1.0" encoding="utf-8"?>
<svg version="1.1" xmlns:xlink="http://www.w3.org/1999/xlink" width="25px" height="48px" xmlns="http://www.w3.org/2000/svg">
  <g transform="matrix(1 0 0 1 -298 -245 )">
    <path d="M 24.65203426124197 29.223214285714285  C 24.884011420413994 30.00892857142857  25.000000000000007 30.848214285714285  25 31.741071428571427  C 25.000000000000007 34.473214285714285  24.112241256245543 36.825892857142854  22.336723768736615 38.799107142857146  C 20.561206281227694 40.77232142857143  18.254817987152034 41.99107142857143  15.417558886509635 42.45535714285714  L 15.417558886509635 47.14285714285714  C 15.417558886509635 47.39285714285714  15.337259100642397 47.598214285714285  15.176659528907924 47.75892857142857  C 15.016059957173447 47.91964285714286  14.810849393290507 48  14.5610278372591 48  L 10.947537473233403 48  C 10.715560314061385 48  10.51481084939329 47.91517857142857  10.345289079229122 47.745535714285715  C 10.175767309064954 47.57589285714286  10.091006423982869 47.375  10.091006423982869 47.14285714285714  L 10.091006423982869 42.45535714285714  C 8.913276231263383 42.29464285714286  7.775695931477516 42.017857142857146  6.678265524625268 41.625  C 5.580835117773019 41.232142857142854  4.675231977159173 40.83482142857143  3.961456102783726 40.433035714285715  C 3.2476802284082797 40.03125  2.5874375446109923 39.60267857142857  1.980728051391863 39.14732142857143  C 1.374018558172734 38.691964285714285  0.9591363311920059 38.357142857142854  0.7360813704496788 38.142857142857146  C 0.513026409707352 37.92857142857143  0.35688793718772316 37.767857142857146  0.26766595289079226 37.660714285714285  C -0.035688793718772184 37.285714285714285  -0.05353319057815846 36.919642857142854  0.21413276231263384 36.5625  L 2.9710920770877944 32.94642857142857  C 3.0960028551034977 32.76785714285714  3.3012134189864386 32.660714285714285  3.5867237687366167 32.625  C 3.854389721627409 32.58928571428571  4.068522483940043 32.669642857142854  4.229122055674519 32.86607142857143  L 4.282655246252676 32.919642857142854  C 6.299072091363313 34.6875  8.46716630977873 35.80357142857143  10.786937901498929 36.267857142857146  C 11.447180585296216 36.410714285714285  12.107423269093506 36.482142857142854  12.767665952890791 36.482142857142854  C 14.21306209850107 36.482142857142854  15.484475374732334 36.098214285714285  16.58190578158458 35.330357142857146  C 17.67933618843683 34.5625  18.228051391862955 33.473214285714285  18.228051391862955 32.0625  C 18.228051391862955 31.562499999999996  18.094218415417558 31.08928571428571  17.826552462526767 30.642857142857146  C 17.558886509635975 30.19642857142857  17.25999286224126 29.82142857142857  16.929871520342612 29.517857142857146  C 16.59975017844397 29.21428571428571  16.077801570306928 28.879464285714285  15.364025695931478 28.513392857142854  C 14.650249821556033 28.147321428571423  14.061384725196287 27.86160714285714  13.597430406852249 27.65625  C 13.13347608850821 27.450892857142854  12.419700214132762 27.160714285714285  11.45610278372591 26.785714285714285  C 10.76017130620985 26.499999999999996  10.211456102783725 26.276785714285715  9.809957173447538 26.116071428571427  C 9.40845824411135 25.955357142857146  8.859743040685226 25.71875  8.163811563169165 25.40625  C 7.467880085653104 25.093749999999996  6.910242683797288 24.816964285714285  6.490899357601713 24.575892857142854  C 6.07155603140614 24.334821428571427  5.567451820128479 24.01785714285714  4.9785867237687365 23.625  C 4.389721627408994 23.232142857142854  3.9123840114204147 22.85267857142857  3.5465738758029977 22.48660714285714  C 3.180763740185582 22.120535714285708  2.792648108493933 21.683035714285715  2.3822269807280514 21.17410714285714  C 1.97180585296217 20.66517857142857  1.6550678087080657 20.147321428571423  1.4320128479657388 19.620535714285715  C 1.208957887223412 19.093749999999996  1.0215917201998574 18.5  0.869914346895075 17.839285714285715  C 0.7182369735902929 17.17857142857143  0.6423982869379015 16.482142857142854  0.6423982869379015 15.75  C 0.6423982869379015 13.285714285714286  1.5167737330478226 11.124999999999996  3.2655246252676657 9.26785714285714  C 5.01427551748751 7.410714285714279  7.289436117059244 6.2142857142857135  10.091006423982869 5.678571428571427  L 10.091006423982869 0.8571428571428594  C 10.091006423982869 0.6249999999999964  10.175767309064954 0.42410714285714235  10.345289079229122 0.2544642857142865  C 10.51481084939329 0.0848214285714306  10.715560314061385 0  10.947537473233403 0  L 14.5610278372591 0  C 14.810849393290507 0  15.016059957173447 0.08035714285714057  15.176659528907924 0.24107142857142705  C 15.337259100642397 0.4017857142857135  15.417558886509635 0.6071428571428523  15.417558886509635 0.8571428571428594  L 15.417558886509635 5.571428571428573  C 16.434689507494646 5.678571428571427  17.42059243397573 5.883928571428566  18.37526766595289 6.1875  C 19.329942897930053 6.491071428571429  20.10617416131335 6.790178571428573  20.703961456102785 7.084821428571427  C 21.301748750892223 7.3794642857142865  21.86830835117773 7.7142857142857135  22.403640256959314 8.089285714285714  C 22.9389721627409 8.464285714285714  23.28693790149893 8.72321428571428  23.447537473233403 8.866071428571427  C 23.60813704496788 9.00892857142857  23.741970021413277 9.133928571428573  23.849036402569592 9.241071428571427  C 24.15239114917916 9.5625  24.197002141327623 9.901785714285712  23.98286937901499 10.258928571428573  L 21.814775160599574 14.16964285714286  C 21.672019985724482 14.4375  21.466809421841543 14.580357142857142  21.199143468950748 14.598214285714286  C 20.949321912919345 14.651785714285714  20.708422555317632 14.589285714285712  20.47644539614561 14.410714285714286  C 20.42291220556745 14.35714285714286  20.293540328336903 14.25  20.08832976445396 14.089285714285714  C 19.883119200571027 13.928571428571427  19.535153461812996 13.69196428571428  19.04443254817987 13.379464285714286  C 18.553711634546755 13.066964285714283  18.03176302640971 12.781249999999998  17.478586723768736 12.522321428571427  C 16.92541042112777 12.263392857142856  16.260706638115632 12.031249999999998  15.484475374732334 11.82589285714286  C 14.708244111349037 11.62053571428571  13.945396145610278 11.51785714285714  13.19593147751606 11.51785714285714  C 11.500713775874376 11.51785714285714  10.117773019271949 11.90178571428571  9.047109207708779 12.66964285714286  C 7.9764453961456105 13.437499999999998  7.441113490364026 14.428571428571425  7.441113490364026 15.64285714285714  C 7.441113490364026 16.107142857142854  7.516952177016418 16.535714285714285  7.6686295503211985 16.928571428571427  C 7.8203069236259815 17.321428571428566  8.083511777301927 17.691964285714285  8.458244111349037 18.040178571428573  C 8.832976445396145 18.38839285714286  9.185403283369023 18.683035714285715  9.515524625267666 18.92410714285714  C 9.84564596716631 19.165178571428573  10.345289079229122 19.441964285714285  11.014453961456102 19.754464285714285  C 11.683618843683083 20.066964285714278  12.223411848679515 20.30803571428571  12.633832976445397 20.477678571428573  C 13.044254104211278 20.64732142857143  13.668807994289795 20.89285714285714  14.507494646680943 21.214285714285715  C 15.45324768022841 21.57142857142857  16.17594575303355 21.85267857142857  16.675588865096362 22.058035714285715  C 17.175231977159175 22.263392857142858  17.853319057815845 22.575892857142854  18.70985010706638 22.995535714285715  C 19.56638115631692 23.41517857142857  20.240007137758745 23.794642857142854  20.730728051391864 24.133928571428573  C 21.221448965024987 24.473214285714285  21.774625267665957 24.919642857142854  22.390256959314776 25.473214285714285  C 23.005888650963602 26.02678571428571  23.478765167737333 26.593749999999996  23.808886509635975 27.174107142857146  C 24.13900785153462 27.754464285714285  24.42005710206995 28.437499999999993  24.65203426124197 29.223214285714285  Z " fill-rule="nonzero" fill="#f7b400" stroke="none" fill-opacity="0.9921568627450981" transform="matrix(1 0 0 1 298 245 )" />
  </g>
</svg>