<?xml version="1.0" encoding="utf-8"?>
<svg version="1.1" xmlns:xlink="http://www.w3.org/1999/xlink" width="24px" height="22px" xmlns="http://www.w3.org/2000/svg">
  <g transform="matrix(1 0 0 1 -342 -1342 )">
    <path d="M 23.192307692307693 7.887838689350977  C 23.730769230769234 7.971014492753625  24 8.183574879227052  24 8.525519848771268  C 24 8.728838479311069  23.875 8.950640621718124  23.625 9.190926275992439  L 18.389423076923077 14.098298676748582  L 19.629807692307693 21.02961562696912  C 19.63942307692308 21.094307918504516  19.64423076923077 21.18672547784079  19.64423076923077 21.306868304977947  C 19.64423076923077 21.50094517958412  19.59375 21.664986347406007  19.492788461538463 21.798991808443603  C 19.391826923076923 21.932997269481202  19.24519230769231 22  19.052884615384613 22  C 18.87019230769231 22  18.677884615384613 21.944549464398236  18.475961538461537 21.833648393194707  L 12 18.56206679269061  L 5.524038461538462 21.833648393194707  C 5.3125 21.944549464398236  5.1201923076923075 22  4.947115384615384 22  C 4.7451923076923075 22  4.59375 21.932997269481202  4.492788461538462 21.798991808443603  C 4.391826923076923 21.664986347406007  4.341346153846153 21.50094517958412  4.341346153846153 21.306868304977947  C 4.341346153846153 21.251417769376182  4.350961538461539 21.159000210039906  4.3701923076923075 21.02961562696912  L 5.610576923076923 14.098298676748582  L 0.3605769230769231 9.190926275992439  C 0.12019230769230768 8.9413988657845  0 8.719596723377443  0 8.525519848771268  C 0 8.183574879227052  0.26923076923076916 7.971014492753625  0.8076923076923077 7.887838689350977  L 8.048076923076923 6.875866414618777  L 11.293269230769232 0.5683679899180833  C 11.47596153846154 0.1894559966393603  11.711538461538462 0  12 0  C 12.288461538461537 0  12.524038461538462 0.1894559966393603  12.70673076923077 0.5683679899180833  L 15.951923076923077 6.875866414618777  L 23.192307692307693 7.887838689350977  Z " fill-rule="nonzero" fill="#f7b400" stroke="none" fill-opacity="0.9921568627450981" transform="matrix(1 0 0 1 342 1342 )" />
  </g>
</svg>