<?xml version="1.0" encoding="utf-8"?>
<svg version="1.1" xmlns:xlink="http://www.w3.org/1999/xlink" width="49px" height="50px" xmlns="http://www.w3.org/2000/svg">
  <g transform="matrix(1 0 0 1 -216 -2542 )">
    <path d="M 38.185546875 28.548177083333336  C 38.589626736111114 28.135850694444443  38.791666666666664 27.647569444444443  38.791666666666664 27.083333333333336  L 38.791666666666664 22.916666666666668  C 38.791666666666664 22.352430555555554  38.589626736111114 21.864149305555554  38.185546875 21.451822916666668  C 37.78146701388889 21.03949652777778  37.30295138888889 20.833333333333332  36.75 20.833333333333332  L 28.583333333333336 20.833333333333332  L 28.583333333333336 12.5  C 28.583333333333336 11.935763888888884  28.381293402777782 11.447482638888884  27.977213541666664 11.03515625  C 27.573133680555557 10.62282986111111  27.094618055555557 10.416666666666668  26.541666666666664 10.416666666666668  L 22.458333333333332 10.416666666666668  C 21.905381944444446 10.416666666666668  21.426866319444446 10.62282986111111  21.022786458333332 11.03515625  C 20.618706597222225 11.447482638888884  20.416666666666668 11.935763888888884  20.416666666666668 12.5  L 20.416666666666668 20.833333333333332  L 12.25 20.833333333333332  C 11.697048611111112 20.833333333333332  11.218532986111112 21.03949652777778  10.814453125 21.451822916666668  C 10.41037326388889 21.864149305555554  10.208333333333334 22.352430555555554  10.208333333333334 22.916666666666668  L 10.208333333333334 27.083333333333336  C 10.208333333333334 27.647569444444443  10.41037326388889 28.135850694444443  10.814453125 28.548177083333336  C 11.218532986111112 28.96050347222222  11.697048611111112 29.166666666666664  12.25 29.166666666666664  L 20.416666666666668 29.166666666666664  L 20.416666666666668 37.5  C 20.416666666666668 38.06423611111111  20.618706597222225 38.55251736111111  21.022786458333332 38.96484375  C 21.426866319444446 39.37717013888889  21.905381944444446 39.58333333333333  22.458333333333332 39.58333333333333  L 26.541666666666664 39.58333333333333  C 27.094618055555557 39.58333333333333  27.573133680555557 39.37717013888889  27.977213541666664 38.96484375  C 28.381293402777782 38.55251736111111  28.583333333333336 38.06423611111111  28.583333333333336 37.5  L 28.583333333333336 29.166666666666664  L 36.75 29.166666666666664  C 37.30295138888889 29.166666666666664  37.78146701388889 28.96050347222222  38.185546875 28.548177083333336  Z M 45.714192708333336 12.451171875  C 47.90473090277777 16.281467013888886  49 20.464409722222214  49 25  C 49 29.53559027777778  47.90473090277777 33.71853298611111  45.714192708333336 37.548828125  C 43.52365451388889 41.37912326388889  40.551540798611114 44.41189236111111  36.7978515625 46.64713541666667  C 33.04416232638889 48.88237847222223  28.944878472222225 50  24.5 50  C 20.05512152777778 50  15.955837673611112 48.88237847222223  12.2021484375 46.64713541666667  C 8.44845920138889 44.41189236111111  5.476345486111112 41.37912326388889  3.285807291666667 37.548828125  C 1.095269097222222 33.71853298611111  0 29.53559027777778  0 25  C 0 20.464409722222214  1.095269097222222 16.281467013888886  3.285807291666667 12.451171875  C 5.476345486111112 8.62087673611111  8.44845920138889 5.588107638888884  12.2021484375 3.3528645833333313  C 15.955837673611112 1.1176215277777735  20.05512152777778 0  24.5 0  C 28.944878472222225 0  33.04416232638889 1.1176215277777735  36.7978515625 3.3528645833333313  C 40.551540798611114 5.588107638888884  43.52365451388889 8.62087673611111  45.714192708333336 12.451171875  Z " fill-rule="nonzero" fill="#ffc32a" stroke="none" transform="matrix(1 0 0 1 216 2542 )" />
  </g>
</svg>