<?xml version="1.0" encoding="utf-8"?>
<svg version="1.1" xmlns:xlink="http://www.w3.org/1999/xlink" width="28px" height="31px" xmlns="http://www.w3.org/2000/svg">
  <g transform="matrix(1 0 0 1 -433 -105 )">
    <path d="M 14 29.61607142857143  C 14.179487179487182 29.61607142857143  14.269230769230772 29.523809523809526  14.269230769230768 29.33928571428571  C 14.269230769230772 29.154761904761905  14.179487179487182 29.0625  14 29.0625  C 13.338141025641026 29.0625  12.768830128205131 28.817429315476186  12.292067307692308 28.32728794642857  C 11.815304487179489 27.837146577380953  11.576923076923077 27.251860119047617  11.576923076923077 26.571428571428573  C 11.576923076923077 26.386904761904763  11.487179487179489 26.294642857142858  11.307692307692308 26.294642857142858  C 11.12820512820513 26.294642857142858  11.038461538461538 26.386904761904763  11.038461538461538 26.571428571428573  C 11.038461538461538 27.413318452380953  11.327323717948719 28.131231398809526  11.905048076923077 28.72516741071429  C 12.482772435897438 29.319103422619047  13.181089743589745 29.61607142857143  14 29.61607142857143  Z M 7.538461538461538 9.964285714285714  C 7.538461538461538 16.099702380952383  6.0464743589743595 20.897321428571427  3.0625 24  L 24.9375 24  C 21.953525641025642 20.897321428571427  20.46153846153846 16.099702380952383  20.46153846153846 9.964285714285714  C 20.46153846153846 9.37611607142857  20.326923076923077 8.77064732142857  20.057692307692307 8.147879464285714  C 19.78846153846154 7.525111607142857  19.401442307692307 6.931175595238092  18.896634615384617 6.36607142857143  C 18.391826923076923 5.800967261904761  17.71033653846154 5.33677455357143  16.85216346153846 4.97349330357143  C 15.993990384615383 4.61021205357143  15.043269230769232 4.42857142857143  14 4.42857142857143  C 12.95673076923077 4.42857142857143  12.006009615384617 4.61021205357143  11.147836538461538 4.97349330357143  C 10.289663461538462 5.33677455357143  9.608173076923077 5.800967261904761  9.103365384615383 6.36607142857143  C 8.598557692307692 6.931175595238092  8.211538461538462 7.525111607142857  7.942307692307692 8.147879464285714  C 7.673076923076923 8.77064732142857  7.538461538461538 9.37611607142857  7.538461538461538 9.964285714285714  Z M 26.46875 22.834821428571427  C 26.9286858974359 23.365327380952383  27.439102564102566 23.872767857142858  28 24.357142857142858  C 28.000000000000007 24.956845238095237  27.786858974358978 25.475818452380956  27.360576923076923 25.9140625  C 26.934294871794876 26.352306547619044  26.429487179487182 26.571428571428573  25.846153846153847 26.571428571428573  L 18.307692307692307 26.571428571428573  C 18.307692307692307 27.793898809523814  17.887019230769234 28.837611607142858  17.045673076923077 29.70256696428571  C 16.204326923076923 30.56752232142857  15.189102564102566 31  14 31  C 12.810897435897438 31  11.795673076923077 30.56752232142857  10.954326923076923 29.70256696428571  C 10.11298076923077 28.837611607142858  9.692307692307692 27.793898809523814  9.692307692307692 26.571428571428573  L 2.153846153846154 26.571428571428573  C 1.5705128205128207 26.571428571428573  1.0657051282051282 26.352306547619044  0.6394230769230769 25.9140625  C 0.21314102564102572 25.475818452380956  0 24.956845238095237  0 24.357142857142858  C 0.560897435897436 23.872767857142858  1.0713141025641029 23.365327380952383  1.53125 22.834821428571427  C 1.9911858974358978 22.304315476190474  2.467948717948718 21.615234375  2.9615384615384617 20.767578125  C 3.4551282051282057 19.919921875  3.8729967948717956 19.00595238095238  4.215144230769231 18.025669642857142  C 4.557291666666667 17.045386904761905  4.837740384615385 15.857514880952383  5.056490384615385 14.46205357142857  C 5.275240384615385 13.066592261904761  5.384615384615385 11.567336309523805  5.384615384615385 9.964285714285714  C 5.384615384615385 8.211309523809522  6.040865384615385 6.582310267857143  7.353365384615384 5.07728794642857  C 8.665865384615383 3.572265625  10.387820512820513 2.6582961309523787  12.51923076923077 2.3353794642857135  C 12.42948717948718 2.1162574404761876  12.384615384615383 1.891369047619048  12.384615384615383 1.6607142857142867  C 12.384615384615383 1.199404761904761  12.541666666666668 0.8072916666666655  12.85576923076923 0.484375  C 13.169871794871796 0.16145833333333448  13.551282051282051 0  14 0  C 14.44871794871795 0  14.830128205128208 0.16145833333333448  15.144230769230768 0.484375  C 15.458333333333334 0.8072916666666655  15.615384615384617 1.199404761904761  15.615384615384617 1.6607142857142867  C 15.615384615384617 1.891369047619048  15.570512820512821 2.1162574404761876  15.480769230769232 2.3353794642857135  C 17.61217948717949 2.6582961309523787  19.334134615384617 3.572265625  20.646634615384617 5.07728794642857  C 21.959134615384617 6.582310267857143  22.615384615384617 8.211309523809522  22.615384615384617 9.964285714285714  C 22.615384615384617 11.567336309523805  22.724759615384617 13.066592261904761  22.943509615384617 14.46205357142857  C 23.162259615384617 15.857514880952383  23.442708333333336 17.045386904761905  23.784855769230766 18.025669642857142  C 24.127003205128208 19.00595238095238  24.544871794871796 19.919921875  25.03846153846154 20.767578125  C 25.532051282051285 21.615234375  26.00881410256411 22.304315476190474  26.46875 22.834821428571427  Z " fill-rule="nonzero" fill="#f3c053" stroke="none" transform="matrix(1 0 0 1 433 105 )" />
  </g>
</svg>