<?xml version="1.0" encoding="utf-8"?>
<svg version="1.1" xmlns:xlink="http://www.w3.org/1999/xlink" width="63px" height="47px" xmlns="http://www.w3.org/2000/svg">
  <g transform="matrix(1 0 0 1 -131 -246 )">
    <path d="M 12 23.5  L 20 23.5  L 20 39.16666666666667  L 12 39.16666666666667  L 12 23.5  Z M 24 7.833333333333331  L 31 7.833333333333331  L 31 39.16666666666667  L 24 39.16666666666667  L 24 7.833333333333331  Z M 4 43  L 63 43  L 63 47  L 0 47  L 0 0  L 4 0  L 4 43  Z M 35 15.666666666666668  L 43 15.666666666666668  L 43 39.16666666666667  L 35 39.16666666666667  L 35 15.666666666666668  Z M 47 3.9166666666666683  L 55 3.9166666666666683  L 55 39.16666666666667  L 47 39.16666666666667  L 47 3.9166666666666683  Z " fill-rule="nonzero" fill="#f7b400" stroke="none" fill-opacity="0.9921568627450981" transform="matrix(1 0 0 1 131 246 )" />
  </g>
</svg>